<?xml version="1.0" standalone="no"?>
<!DOCTYPE svg PUBLIC "-//W3C//DTD SVG 20010904//EN"
 "http://www.w3.org/TR/2001/REC-SVG-20010904/DTD/svg10.dtd">
<svg version="1.0" xmlns="http://www.w3.org/2000/svg"
 width="3000.000000pt" height="3000.000000pt" viewBox="0 0 3000.000000 3000.000000"
 preserveAspectRatio="xMidYMid meet">
<metadata>
Created by potrace 1.16, written by Peter Selinger 2001-2019
</metadata>
<g transform="translate(0.000000,3000.000000) scale(0.100000,-0.100000)"
fill="#000000" stroke="none">
<path d="M9861 29284 c-17 -21 -19 -35 -14 -92 6 -84 -17 -240 -52 -347 -60
-182 -211 -423 -362 -578 -119 -123 -205 -167 -323 -167 -38 0 -71 3 -73 8 -3
4 10 43 27 87 18 44 43 117 56 162 27 96 20 132 -33 155 -135 57 -311 -78
-325 -250 -4 -44 -7 -52 -21 -47 -87 36 -243 56 -336 45 -52 -6 -62 -4 -73 12
-38 54 -113 97 -166 98 -49 0 -115 -39 -151 -89 -20 -27 -49 -91 -70 -155 -32
-97 -44 -118 -96 -179 -73 -85 -138 -180 -213 -314 -123 -222 -201 -445 -350
-1013 l-53 -205 -96 0 c-87 0 -98 2 -121 24 -14 14 -26 30 -26 37 0 24 -52 56
-80 49 -68 -17 -79 -75 -27 -151 49 -72 118 -107 224 -112 45 -3 83 -8 83 -12
0 -5 -20 -98 -44 -208 -81 -359 -133 -640 -176 -937 -12 -82 -24 -156 -26
-164 -3 -8 -34 29 -73 87 -107 157 -305 404 -373 465 -43 37 -111 6 -111 -50
0 -24 18 -51 88 -129 103 -116 267 -333 344 -456 30 -48 64 -91 76 -96 21 -10
21 -14 13 -78 -12 -85 -17 -95 -75 -133 -116 -77 -301 -92 -431 -35 -20 9 -42
18 -49 20 -15 3 -65 37 -121 83 -86 72 -165 213 -203 364 -29 117 -37 343 -15
458 18 94 77 242 124 312 151 218 420 279 575 129 48 -46 92 -131 114 -219 13
-52 17 -113 18 -262 l0 -194 26 -19 c32 -24 73 -16 96 18 21 33 30 287 14 407
-15 108 -60 236 -106 299 -42 58 -125 124 -185 150 -25 11 -56 25 -69 31 -39
19 -207 15 -271 -7 -239 -81 -385 -254 -461 -546 -55 -208 -24 -576 65 -773
95 -213 274 -366 482 -412 108 -25 265 -17 357 17 l67 26 0 -27 c0 -14 -7 -84
-15 -156 -53 -484 -76 -884 -82 -1466 l-6 -515 27 -21 c30 -24 69 -22 98 4 16
15 18 42 18 312 0 595 29 1125 96 1751 20 188 31 255 47 287 16 34 18 47 9 67
-26 57 132 957 273 1552 l26 112 47 17 c79 30 203 95 287 151 339 226 591 589
695 1002 7 25 18 45 28 48 179 54 355 186 476 357 l49 69 69 -69 c145 -142
286 -357 503 -768 26 -49 76 -142 110 -205 34 -63 138 -259 230 -435 186 -356
253 -465 323 -524 99 -85 173 -110 397 -136 485 -55 1013 -187 1445 -362 295
-119 341 -168 250 -267 -48 -52 -108 -85 -310 -169 -301 -125 -586 -207 -932
-267 -248 -43 -313 -68 -390 -147 -46 -48 -74 -110 -87 -193 -5 -36 -12 -243
-16 -460 -4 -217 -10 -398 -13 -401 -4 -4 -45 -21 -92 -39 -271 -104 -531
-147 -820 -137 -270 9 -508 61 -750 163 -58 24 -116 44 -128 44 -51 0 -83 -79
-44 -112 48 -40 297 -133 467 -173 182 -44 307 -58 515 -58 107 0 227 2 265 6
l71 6 27 -302 c33 -361 105 -1120 114 -1196 5 -50 5 -54 -13 -46 -589 243
-1306 425 -1909 485 -291 29 -698 29 -955 0 -249 -29 -551 -95 -744 -164 -53
-19 -96 -33 -96 -31 0 2 -39 -14 -87 -34 -68 -30 -91 -45 -102 -67 -8 -16 -39
-56 -70 -89 -276 -298 -481 -737 -600 -1284 -63 -288 -105 -596 -151 -1096
-94 -1042 -132 -1862 -131 -2860 1 -886 22 -1545 72 -2290 11 -165 22 -343 24
-395 6 -122 14 -217 55 -645 76 -780 221 -1843 339 -2468 5 -31 4 -92 -5 -180
-57 -536 -24 -1246 82 -1802 102 -532 182 -753 340 -941 l43 -51 -58 -6 c-63
-5 -201 -46 -201 -59 0 -4 -6 -8 -12 -8 -7 0 -42 -18 -77 -41 -43 -27 -66 -37
-71 -29 -4 6 -10 68 -13 138 -7 135 -50 556 -92 887 -310 2456 -967 4806
-1980 7079 -206 464 -560 1192 -664 1368 -175 296 -405 454 -606 417 -125 -23
-256 -129 -328 -266 -65 -124 -97 -264 -139 -613 -19 -159 -23 -234 -23 -530
0 -336 6 -430 41 -720 112 -924 422 -1938 987 -3230 128 -292 283 -632 339
-745 28 -55 121 -251 208 -435 87 -184 300 -636 475 -1005 174 -368 535 -1131
802 -1695 267 -564 501 -1056 521 -1094 20 -39 54 -88 76 -110 l39 -41 1 -150
c2 -205 27 -316 109 -480 241 -482 741 -784 1512 -914 461 -78 1786 -210 2475
-246 l125 -7 -3 -142 c-10 -393 52 -1193 134 -1751 20 -132 40 -274 46 -315 5
-41 14 -90 20 -108 5 -19 7 -53 4 -77 -7 -42 -8 -43 -54 -50 -87 -12 -306 -64
-424 -99 -447 -136 -836 -346 -1198 -647 -151 -125 -164 -140 -157 -183 4 -28
2 -36 -13 -41 -24 -7 -44 -58 -36 -90 4 -14 23 -36 45 -49 102 -64 70 -192
-64 -261 -54 -28 -66 -30 -164 -30 -96 0 -111 3 -157 27 -128 68 -179 209
-114 316 53 86 213 81 250 -8 23 -56 85 -68 120 -23 24 31 21 55 -16 119 -30
51 -83 87 -159 110 -123 35 -254 -18 -320 -131 -26 -43 -29 -58 -40 -157 -10
-94 19 -179 87 -253 48 -53 115 -100 155 -110 201 -51 326 -44 448 25 62 35
116 91 147 150 19 36 23 60 23 125 -1 94 -22 145 -82 194 -24 20 -32 31 -21
31 9 0 63 41 120 90 347 304 797 545 1263 676 83 24 307 74 330 74 6 0 10 -86
10 -238 1 -206 11 -361 32 -480 11 -66 81 -94 124 -51 24 24 24 18 -1 274 -5
55 -9 188 -9 295 -1 199 0 204 42 262 16 23 16 30 2 98 -8 40 -13 75 -11 77 7
8 344 -16 472 -32 662 -85 1336 -370 1846 -780 l37 -29 -36 -21 c-101 -62
-203 -207 -218 -312 -16 -122 38 -276 127 -360 179 -167 469 -190 641 -49 175
143 212 386 94 611 -65 122 -209 234 -323 251 -49 7 -88 -10 -99 -46 -3 -11
-9 -20 -13 -20 -4 0 -49 34 -100 75 -656 528 -1504 842 -2318 857 l-141 3 -32
205 c-85 553 -133 1095 -147 1640 l-6 255 33 15 c23 10 37 25 43 45 l9 30 716
0 c751 1 941 8 1446 56 677 64 1320 173 1824 309 19 5 35 8 36 7 1 -1 14 -40
29 -87 16 -47 50 -133 76 -191 l47 -107 -64 -103 c-35 -57 -103 -183 -152
-279 -215 -429 -346 -867 -406 -1360 -35 -283 -30 -741 10 -1015 8 -49 12 -91
11 -93 -6 -6 -211 180 -305 277 -141 145 -269 310 -326 421 -10 19 -21 37 -25
40 -17 11 -82 187 -100 269 -21 94 -26 264 -10 334 29 127 81 426 90 516 27
256 -42 447 -220 614 -158 148 -352 236 -685 311 -237 54 -432 58 -595 13 -99
-28 -137 -46 -205 -98 -89 -68 -170 -196 -195 -310 -7 -32 -11 -91 -8 -135 7
-115 31 -162 141 -277 26 -26 112 -64 177 -78 83 -17 242 -5 448 35 323 63
457 45 535 -73 63 -95 71 -218 33 -474 -35 -228 -40 -308 -27 -422 15 -134 43
-245 91 -369 171 -437 575 -789 1010 -881 135 -28 180 -14 180 56 0 41 -30 59
-136 80 -453 92 -843 472 -972 947 -23 87 -26 115 -26 272 0 121 5 208 17 280
54 326 36 483 -69 618 -123 157 -285 183 -664 106 -235 -47 -376 -52 -455 -16
-65 30 -93 56 -121 117 -70 147 26 368 196 455 114 58 306 76 486 45 134 -23
317 -73 429 -116 269 -104 445 -273 486 -467 19 -91 6 -283 -29 -452 -64 -305
-75 -445 -47 -606 56 -318 258 -642 593 -952 149 -137 329 -292 340 -292 5 0
15 -26 22 -57 108 -491 343 -941 608 -1169 199 -170 382 -244 608 -244 256 0
420 66 819 327 88 58 186 125 218 149 31 24 60 44 63 44 4 0 43 31 88 69 367
309 487 670 386 1161 -35 164 -98 357 -246 742 -146 382 -344 912 -344 923 0
5 -29 86 -64 179 l-64 170 72 24 c159 53 287 137 405 265 131 142 170 219 243
477 16 58 22 385 9 531 -26 289 -81 644 -147 942 -40 183 -47 201 -81 216 -35
16 -56 7 -137 -59 -210 -172 -363 -194 -536 -78 -155 103 -241 287 -286 613
-16 116 -21 133 -45 158 -42 41 -63 35 -147 -45 -42 -40 -117 -111 -167 -158
-49 -48 -125 -119 -167 -160 -90 -85 -98 -111 -47 -154 17 -14 39 -26 50 -26
18 0 86 61 287 255 46 44 86 81 90 83 4 1 15 -43 25 -98 46 -274 158 -472 330
-588 107 -71 192 -95 314 -90 89 3 106 7 177 41 44 21 101 53 128 72 26 19 52
35 56 35 10 0 84 -366 112 -555 39 -262 53 -437 53 -655 0 -201 -1 -222 -26
-315 -15 -55 -42 -131 -61 -170 -129 -260 -420 -434 -772 -461 -106 -8 -264
10 -314 36 -19 10 -41 28 -48 40 -12 20 -20 22 -65 17 -44 -4 -61 0 -112 25
-191 96 -414 310 -525 504 l-24 41 22 30 c29 40 28 68 -3 98 -26 27 -46 31
-75 15 -15 -8 -21 -2 -40 43 -36 82 -88 240 -83 251 2 6 38 27 80 46 167 76
331 201 417 318 52 71 105 183 126 269 63 246 -22 549 -226 808 -171 216 -514
535 -576 535 -36 0 -68 -32 -68 -70 0 -25 18 -45 133 -143 337 -290 516 -520
587 -755 19 -62 21 -90 18 -200 -3 -104 -9 -140 -29 -198 -61 -169 -188 -297
-419 -423 -84 -45 -90 -47 -90 -26 0 17 -30 35 -58 35 -30 0 -63 -32 -70 -69
-9 -40 -7 -39 -256 -101 -617 -154 -1438 -262 -2276 -300 -289 -13 -1092 -13
-1415 0 -718 29 -1566 100 -2445 206 -680 81 -1050 188 -1350 389 -270 181
-447 406 -532 675 -20 64 -23 96 -23 222 l0 147 43 36 c23 21 49 50 57 66 18
33 20 102 4 130 -27 50 153 251 287 321 72 38 173 68 230 68 35 0 59 22 69 63
4 15 9 27 10 27 2 0 39 -24 82 -54 196 -135 523 -270 921 -381 627 -176 1346
-225 2582 -175 449 18 1161 62 1215 75 24 6 917 71 1090 80 66 3 140 8 165 10
25 2 198 9 385 14 187 6 378 13 425 16 416 28 633 166 690 440 8 37 13 135 13
253 -1 127 3 194 10 199 6 4 12 2 14 -3 3 -10 279 -4 785 16 401 17 857 2
1131 -36 214 -30 407 -94 442 -148 8 -12 46 -103 84 -202 275 -718 466 -1483
560 -2239 55 -443 66 -642 66 -1175 0 -503 -8 -660 -52 -1050 -36 -322 -39
-368 -31 -438 9 -81 36 -139 87 -192 23 -23 41 -44 41 -45 0 -1 -19 -5 -42 -8
-81 -11 -167 -95 -208 -204 -31 -82 -31 -206 0 -288 26 -66 109 -159 154 -171
38 -9 73 3 92 31 24 36 11 69 -40 104 -83 57 -108 162 -66 275 22 58 86 126
118 126 31 0 55 35 48 70 l-6 31 43 -25 c106 -61 246 -89 581 -116 331 -27
1047 -88 1113 -95 44 -5 55 -3 72 14 29 29 28 86 -1 105 -16 10 -103 21 -278
36 -975 81 -1203 103 -1295 126 -117 31 -214 95 -252 167 -26 51 -26 126 1
337 38 307 45 383 57 645 70 1432 -140 2762 -641 4063 -51 132 -72 173 -106
211 -97 108 -279 165 -656 208 -125 14 -252 17 -703 17 -302 1 -678 -1 -835
-4 l-285 -5 -3 807 c-1 445 1 808 5 808 5 0 58 -5 118 -10 417 -39 1075 -209
1645 -425 592 -224 1057 -500 1307 -775 91 -101 216 -318 432 -750 306 -615
524 -1259 660 -1950 79 -407 113 -672 146 -1150 9 -140 6 -714 -5 -890 -15
-230 -49 -572 -65 -645 -2 -11 -18 -26 -35 -32 -67 -25 -71 -134 -5 -174 36
-23 48 -23 88 -4 27 12 116 15 528 17 l496 3 7 -155 c4 -85 9 -281 11 -435 5
-269 6 -281 26 -298 28 -22 64 -22 88 2 29 29 33 128 21 591 -10 394 -20 590
-35 665 -6 27 1 37 67 102 208 204 489 355 771 414 120 26 343 30 447 10 162
-32 354 -114 498 -213 157 -110 309 -297 372 -460 56 -145 64 -196 64 -393 0
-197 -18 -328 -76 -560 -63 -249 -104 -282 -383 -305 -71 -6 -207 -17 -301
-25 -504 -43 -1144 -79 -1694 -95 -419 -12 -1340 -12 -1730 0 -156 4 -292 5
-300 0 -9 -5 -22 -20 -29 -34 -18 -33 0 -80 37 -95 48 -19 1100 -33 1687 -21
827 16 1392 46 2197 116 367 32 434 49 521 132 78 75 108 152 161 415 45 227
59 337 59 482 0 199 -32 346 -113 508 -238 475 -782 761 -1327 697 -59 -7
-112 -16 -118 -20 -5 -4 -47 -15 -92 -24 -160 -34 -374 -134 -542 -254 -179
-127 -431 -392 -431 -452 0 -52 83 -93 118 -58 9 9 12 0 12 -42 l0 -55 -463 3
-463 2 13 93 c27 188 54 518 59 717 3 113 7 211 9 217 3 7 12 13 22 13 10 1
279 99 598 219 626 235 631 238 609 297 -5 15 -21 36 -36 47 l-27 20 -553
-208 c-304 -114 -565 -214 -580 -221 -15 -8 -29 -14 -31 -14 -2 0 -7 107 -11
237 -3 131 -8 249 -10 263 -2 14 -7 68 -11 120 -33 491 -141 1087 -301 1660
-133 477 -304 911 -554 1405 -239 473 -311 585 -475 744 -351 337 -1033 676
-1877 930 -373 113 -847 209 -1127 229 l-104 7 -1 398 -1 399 -25 20 c-24 20
-34 20 -180 14 -446 -18 -869 -36 -979 -42 -119 -6 -124 -6 -116 12 4 11 9 64
12 119 3 82 -3 145 -37 355 -73 466 -482 3273 -530 3640 -16 124 -70 506 -120
850 -81 556 -137 943 -201 1385 -11 77 -22 148 -25 158 -3 9 -3 17 -1 17 2 0
125 -54 273 -121 1613 -726 3212 -1266 4929 -1664 260 -61 299 -64 360 -35 55
26 97 85 114 158 6 26 20 127 31 226 10 98 20 179 22 181 2 1 53 -4 113 -12
73 -9 167 -13 280 -10 147 4 182 8 260 31 210 63 368 191 453 368 l37 77 64
-70 c136 -151 335 -282 468 -309 70 -15 158 -8 203 15 64 33 119 116 120 181
0 41 4 44 48 28 51 -18 155 -17 200 2 116 48 170 172 143 330 -51 298 -265
632 -521 813 -211 148 -397 212 -620 213 -195 1 -291 -30 -625 -202 -224 -115
-328 -154 -443 -165 -71 -8 -72 -7 -72 16 0 13 4 98 10 189 5 91 12 237 16
326 l7 161 -24 17 c-29 20 -58 21 -86 1 -19 -14 -21 -13 -27 10 -7 28 3 25
-211 65 -532 100 -1110 284 -1696 540 -308 135 -884 424 -1084 545 -38 23
-160 93 -270 155 -227 128 -783 460 -1265 755 -1140 696 -1783 1050 -2379
1309 -100 44 -186 87 -190 95 -5 9 -9 41 -9 72 -1 30 -13 177 -26 325 -26 275
-77 825 -101 1084 -7 80 -12 145 -11 146 0 0 54 14 119 32 138 37 357 125 383
153 16 17 18 61 24 477 5 297 12 470 19 494 7 21 23 51 38 68 48 58 117 80
371 120 300 48 700 169 997 303 39 17 72 34 75 38 3 3 34 21 70 40 131 69 222
197 205 288 -28 148 -152 223 -652 394 -390 134 -743 215 -1181 272 -113 14
-227 35 -255 45 -95 36 -161 114 -269 320 -394 747 -530 1004 -586 1105 -111
200 -212 349 -319 473 l-55 62 31 0 c46 0 147 37 216 78 75 45 232 201 314
312 174 234 273 467 302 709 14 117 5 211 -22 240 -29 30 -82 28 -108 -5z
m-1242 -1179 c74 -18 191 -71 191 -87 0 -21 -103 -149 -170 -210 -70 -65 -157
-122 -200 -133 l-25 -6 -1 178 c0 98 -6 197 -11 220 -6 23 -8 44 -5 48 11 11
159 4 221 -10z m-355 -47 c14 -66 17 -109 17 -232 0 -170 -4 -186 -42 -186
-63 0 -143 52 -175 112 -21 41 -37 125 -30 163 7 37 58 81 159 136 63 35 65
35 71 7z m-316 -373 c43 -83 138 -153 241 -178 l52 -12 -6 -35 c-4 -19 -23
-78 -42 -130 -112 -300 -297 -545 -548 -725 -73 -52 -222 -135 -243 -135 -5 0
11 73 35 163 165 612 266 878 416 1095 l51 74 11 -39 c7 -21 21 -56 33 -78z
m297 -5649 c526 -57 1040 -178 1555 -366 278 -102 341 -128 378 -161 26 -23
41 -29 59 -24 33 8 276 -101 683 -306 500 -252 853 -454 1895 -1089 375 -228
1036 -620 1270 -753 1188 -673 2079 -1035 2997 -1218 217 -43 259 -46 282 -24
8 8 16 15 18 15 2 0 0 -75 -4 -167 -23 -582 -106 -1609 -133 -1650 -16 -24
-19 -61 -7 -80 8 -13 -30 -391 -43 -435 -12 -38 -36 -58 -70 -58 -48 0 -653
144 -1070 255 -1508 400 -3069 968 -4401 1600 -72 34 -141 65 -155 68 -13 3
-116 58 -229 122 -963 544 -2090 966 -3178 1189 -195 41 -228 43 -254 19 -23
-21 -24 -75 0 -95 9 -9 98 -32 197 -53 99 -20 181 -38 181 -38 1 -1 50 -411
108 -912 58 -500 110 -943 116 -984 17 -124 56 -192 135 -234 40 -22 43 -22
573 -19 292 2 532 2 532 -1 0 -2 -16 -40 -36 -83 -126 -276 -118 -496 22 -636
65 -65 129 -96 364 -176 226 -77 1526 -527 1551 -537 9 -3 78 -72 154 -152
l139 -145 18 -127 c10 -69 91 -623 179 -1231 248 -1717 267 -1847 310 -2135
42 -281 49 -405 28 -475 -14 -48 -59 -95 -103 -110 -75 -24 -1376 -131 -1726
-141 -59 -2 -69 0 -92 24 -35 35 -63 34 -101 -4 l-31 -32 -196 -8 c-642 -27
-1765 -29 -2395 -4 -528 21 -980 48 -1449 86 -281 23 -300 21 -312 -27 -10
-37 14 -76 51 -85 61 -15 1008 -81 1355 -94 85 -3 173 -8 195 -10 138 -14
1048 -27 1589 -23 l628 5 -33 -25 c-77 -59 -226 -214 -300 -312 -96 -126 -215
-356 -230 -443 -19 -106 15 -178 104 -221 145 -71 377 -24 592 120 53 35 98
64 100 64 1 0 -4 -26 -11 -57 -38 -166 -38 -409 1 -540 48 -160 188 -250 327
-209 147 43 269 215 312 442 66 350 33 773 -86 1116 l-34 96 90 6 c50 4 127 9
171 11 459 28 1369 105 1472 124 29 6 67 17 86 25 36 15 114 22 332 31 72 3
238 10 370 15 132 5 285 12 340 15 55 2 143 6 195 7 l95 3 3 -598 3 -599 -34
26 c-69 52 -124 69 -245 74 l-113 5 7 30 c3 17 28 81 55 142 83 190 96 278 59
396 -37 120 -113 179 -231 179 -158 0 -287 -131 -566 -575 -185 -296 -443
-802 -443 -871 0 -25 43 -64 70 -64 32 0 56 33 105 145 140 315 346 677 557
978 107 152 171 219 232 242 41 16 50 16 82 4 51 -20 74 -66 74 -151 0 -71
-10 -104 -88 -288 -49 -114 -68 -216 -52 -266 17 -50 37 -57 131 -43 128 19
245 -5 293 -59 28 -32 17 -95 -26 -139 -87 -91 -388 -251 -614 -326 -244 -81
-471 -117 -739 -117 -133 0 -155 2 -155 15 0 9 -11 27 -25 40 -35 36 -88 34
-126 -4 -61 -62 -24 -148 74 -172 79 -19 423 -17 572 5 289 41 562 129 805
258 137 73 228 133 286 190 l51 49 6 -278 c10 -407 8 -1076 -3 -1163 -25 -190
-92 -282 -248 -340 -123 -46 -257 -61 -697 -75 -323 -10 -619 -26 -1045 -56
-151 -10 -291 -19 -311 -19 -36 0 -36 0 -92 116 -208 425 -577 801 -1017 1037
-213 114 -366 119 -455 14 -46 -54 -58 -95 -53 -182 5 -72 39 -162 95 -248 24
-36 14 -42 -96 -57 -257 -35 -326 -57 -406 -131 -73 -67 -100 -121 -100 -199
1 -131 87 -221 253 -264 224 -59 947 -64 1412 -11 103 11 116 15 137 39 29 34
29 48 0 82 l-24 27 -159 -16 c-300 -32 -610 -42 -910 -29 -300 14 -420 30
-493 67 -89 45 -107 116 -46 184 54 59 129 88 280 106 180 22 269 49 322 98
36 32 29 68 -25 139 -64 85 -94 152 -100 220 -11 142 86 154 308 36 391 -207
715 -528 929 -920 42 -76 42 -78 24 -102 -21 -28 6 -25 -553 -61 -350 -22
-526 -31 -1005 -51 -220 -9 -951 -9 -1110 0 -682 39 -1165 131 -1625 311 -367
143 -527 244 -646 410 -74 105 -119 211 -204 490 -53 174 -128 624 -162 965
-20 210 -17 931 5 1130 32 282 33 295 9 312 -23 15 -36 82 -106 528 -193 1228
-311 2444 -368 3800 -18 412 -18 2040 0 2445 33 768 47 998 98 1545 83 910
148 1305 280 1700 119 356 306 674 510 871 60 57 81 70 159 98 281 101 556
161 880 190 146 14 713 5 880 -13z m258 -3317 c212 -53 412 -111 415 -120 8
-21 443 -665 576 -854 526 -741 1143 -1509 1735 -2155 58 -63 116 -127 130
-142 23 -26 11 -23 -205 51 -126 44 -458 159 -739 255 -280 97 -538 190 -572
206 -34 17 -75 46 -92 65 -35 40 -61 119 -61 185 0 103 64 280 156 431 40 66
42 87 12 118 l-21 23 -593 -7 c-665 -8 -633 -11 -653 63 -8 26 -231 1876 -231
1909 0 7 26 2 143 -28z m1207 -377 c278 -105 776 -317 803 -342 4 -4 12 -37
18 -74 20 -146 76 -253 194 -371 85 -84 154 -131 257 -172 83 -34 209 -56 282
-49 49 5 57 4 52 -9 -13 -35 -67 -230 -100 -360 -68 -274 -136 -662 -153 -872
-3 -46 -9 -83 -14 -83 -12 0 -350 399 -590 695 -291 360 -703 904 -921 1215
-124 178 -418 617 -418 624 0 8 386 -125 590 -202z m1093 -483 c137 -69 401
-212 537 -293 l91 -53 -63 -19 c-242 -74 -538 62 -653 301 -32 68 -51 125 -40
125 3 0 60 -28 128 -61z m8029 -194 c362 -99 664 -407 783 -799 30 -99 37
-191 16 -229 -20 -38 -74 -60 -125 -53 -65 10 -144 60 -163 104 -83 192 -133
277 -226 385 -55 64 -84 72 -124 35 -33 -31 -29 -59 23 -135 26 -37 70 -118
99 -179 29 -62 66 -132 83 -156 35 -51 57 -141 48 -191 -20 -109 -174 -103
-346 13 -126 84 -287 258 -365 393 -33 57 -64 69 -103 40 -26 -19 -27 -26 -32
-129 -6 -102 -8 -114 -44 -182 -71 -133 -215 -241 -386 -289 -53 -15 -98 -18
-250 -16 -102 1 -216 8 -255 15 -60 11 -70 16 -68 33 14 119 55 596 78 906 l7
86 91 5 c66 4 118 14 182 36 94 31 116 41 400 184 165 83 254 118 346 138 61
13 262 4 331 -15z m-7327 -207 c2 -13 48 -324 101 -693 117 -818 122 -848 135
-960 14 -125 13 -123 53 -380 19 -126 38 -241 42 -255 6 -24 5 -23 -30 9 -20
19 -36 43 -36 54 0 33 -19 56 -63 75 -30 13 -85 64 -183 168 -271 286 -344
371 -344 401 0 69 43 423 70 582 47 281 107 532 197 821 25 80 43 157 41 172
-5 33 9 38 17 6z m-8882 -93 c79 -33 175 -123 251 -235 129 -192 444 -834 798
-1630 364 -816 669 -1630 957 -2550 81 -259 211 -710 236 -820 9 -41 24 -97
33 -125 8 -27 16 -57 17 -65 1 -8 5 -22 9 -30 9 -21 137 -541 191 -777 217
-936 382 -1908 484 -2848 16 -148 40 -367 53 -485 20 -187 25 -218 44 -236
l21 -21 -29 -34 c-50 -59 -122 -171 -153 -241 -16 -37 -34 -66 -40 -65 -13 4
-40 58 -169 332 -57 121 -460 974 -896 1895 -1036 2189 -1085 2294 -1277 2730
-770 1746 -1102 3086 -1044 4212 27 529 85 781 211 921 64 71 127 100 207 92
34 -3 77 -12 96 -20z m7840 -6940 c78 -222 117 -454 117 -698 -1 -365 -67
-590 -199 -678 -147 -97 -244 55 -227 361 9 172 42 306 114 463 40 89 38 122
-11 145 -36 17 -51 8 -162 -95 -123 -116 -203 -175 -316 -232 -108 -54 -207
-77 -297 -68 -104 11 -116 60 -48 204 130 273 320 488 581 659 55 35 68 40
145 45 47 3 125 5 175 5 l89 -1 39 -110z m3926 -5616 c92 -93 156 -146 236
-199 61 -39 112 -74 114 -76 2 -2 -8 -30 -22 -61 -32 -73 -49 -165 -50 -268 0
-144 45 -268 123 -339 105 -95 212 -100 318 -17 62 50 107 120 128 201 26 102
16 161 -59 330 l-15 35 148 1 149 1 14 -31 c14 -29 459 -1226 573 -1538 190
-523 213 -840 80 -1111 -103 -212 -293 -388 -701 -648 -361 -231 -602 -299
-841 -239 -448 112 -803 655 -948 1450 -75 410 -83 771 -25 1218 44 349 142
719 276 1042 49 119 185 386 234 459 l41 61 50 -72 c28 -40 108 -130 177 -199z
m563 -350 c23 -12 94 -117 125 -186 16 -35 28 -81 30 -122 4 -58 2 -73 -24
-121 -23 -44 -38 -60 -75 -78 -41 -21 -52 -22 -81 -13 -63 21 -100 80 -119
190 -16 92 1 223 38 299 25 51 27 53 58 46 17 -3 39 -10 48 -15z m-2136 -2545
c10 4 25 -10 45 -42 88 -138 75 -336 -28 -434 -121 -115 -365 -93 -489 45 -44
49 -74 121 -74 177 0 95 80 212 182 263 29 15 56 27 60 27 4 0 31 -21 59 -46
42 -37 56 -44 78 -39 33 8 61 40 61 72 l0 25 46 -27 c25 -15 52 -24 60 -21z"/>
<path d="M10932 14650 c-125 -59 -229 -197 -253 -337 -45 -255 174 -469 439
-432 118 17 211 82 255 178 33 71 31 197 -5 273 -54 115 -158 195 -268 205
-57 6 -58 6 -38 23 44 35 15 120 -41 120 -14 0 -54 -13 -89 -30z m38 -149
c-16 -31 -12 -56 13 -79 17 -16 34 -20 79 -19 75 2 129 -34 171 -113 25 -48
28 -63 25 -119 -4 -59 -7 -66 -45 -101 -109 -102 -311 -63 -378 74 -24 49 -27
65 -23 119 8 91 56 179 127 232 42 30 45 31 31 6z"/>
<path d="M11346 12891 c-12 -14 -20 -35 -19 -56 1 -26 -3 -35 -15 -35 -31 0
-119 -59 -165 -109 -163 -182 -56 -440 198 -480 250 -38 441 162 381 399 -41
158 -170 283 -310 297 -43 4 -54 2 -70 -16z m131 -236 c24 -15 54 -25 70 -23
24 3 29 -2 40 -32 17 -50 16 -116 -3 -157 -56 -116 -246 -135 -338 -33 -31 34
-36 47 -36 89 0 65 42 123 113 157 66 30 100 30 154 -1z"/>
<path d="M6475 9891 c-49 -23 -99 -74 -119 -123 -25 -59 -21 -175 9 -260 48
-136 257 -512 428 -768 84 -126 213 -301 314 -427 67 -83 78 -93 107 -93 19 0
40 8 49 18 31 34 21 72 -39 147 -320 399 -705 1031 -744 1221 -30 142 56 211
186 150 66 -31 110 -71 188 -170 110 -141 205 -216 274 -216 37 0 49 15 77 93
70 201 205 299 272 198 30 -44 40 -84 54 -211 14 -127 6 -374 -16 -520 -37
-236 -120 -495 -225 -698 -72 -141 -87 -163 -105 -156 -21 8 -73 -15 -85 -37
-6 -10 -10 -36 -10 -57 0 -33 6 -45 31 -66 55 -46 121 -25 176 56 179 262 319
652 363 1008 33 272 11 611 -46 723 -66 127 -211 172 -329 102 -59 -34 -128
-116 -168 -197 -17 -37 -35 -68 -39 -68 -7 0 -78 79 -170 190 -30 36 -76 82
-104 102 -96 73 -242 99 -329 59z"/>
<path d="M9260 25954 c-94 -40 -82 -257 17 -295 31 -11 85 6 116 39 33 34 57
101 57 159 0 38 -5 50 -34 79 -30 30 -39 33 -81 32 -25 -1 -59 -8 -75 -14z"/>
<path d="M19343 22325 c-129 -23 -237 -105 -289 -220 -14 -29 -56 -179 -95
-332 -84 -335 -175 -656 -264 -933 -37 -113 -72 -227 -80 -255 -48 -184 -377
-1045 -501 -1312 -93 -201 -196 -322 -304 -358 -107 -36 -298 -36 -1055 0
-416 20 -969 44 -1069 47 -71 2 -80 0 -97 -21 -26 -32 -24 -73 5 -100 22 -21
38 -24 178 -32 84 -4 313 -13 508 -19 335 -10 566 -18 985 -37 413 -18 532 -8
656 58 160 85 228 195 444 714 298 715 525 1397 715 2155 82 323 97 370 141
423 84 102 157 106 759 43 430 -45 649 -67 1625 -166 275 -28 565 -57 645 -65
80 -8 219 -22 310 -31 91 -9 181 -17 200 -19 50 -5 230 -23 400 -40 137 -13
285 -28 605 -60 77 -8 212 -21 300 -30 349 -35 466 -46 605 -61 160 -16 430
-43 500 -50 25 -2 90 -8 145 -14 150 -16 391 -40 468 -47 37 -3 67 -9 67 -13
0 -4 -23 -63 -51 -131 -28 -68 -188 -464 -356 -879 -167 -415 -335 -827 -373
-915 -38 -88 -138 -326 -223 -530 -373 -892 -634 -1463 -1014 -2217 -191 -378
-242 -473 -269 -493 -27 -21 -34 -33 -34 -61 0 -24 -23 -80 -70 -174 -90 -176
-144 -250 -211 -289 l-51 -29 -72 20 c-189 53 -493 193 -786 363 -74 43 -290
175 -480 293 -1457 910 -3537 2192 -3556 2192 -25 0 -64 -43 -64 -70 0 -10 8
-27 18 -38 9 -12 764 -484 1677 -1050 913 -565 1703 -1055 1755 -1089 391
-248 711 -435 945 -550 l170 -84 -145 5 c-294 12 -443 17 -765 26 -181 5 -395
12 -475 15 -80 3 -300 10 -490 15 -190 5 -408 12 -485 15 -77 3 -300 10 -495
15 -195 5 -420 12 -500 15 -80 3 -296 10 -480 15 -184 5 -398 12 -475 15 -77
3 -279 10 -450 15 -540 17 -484 18 -506 -9 -24 -30 -24 -52 1 -83 23 -30 24
-30 745 -53 429 -14 671 -21 1938 -60 268 -8 709 -22 980 -30 270 -8 699 -22
952 -31 253 -9 600 -18 771 -19 235 -2 336 -7 412 -20 122 -20 149 -18 174 16
38 50 -6 109 -82 109 -16 0 -30 2 -30 4 0 3 21 33 48 68 26 35 83 129 126 211
44 81 84 147 91 147 21 0 186 -71 304 -130 317 -158 549 -376 621 -584 50
-140 43 -278 -19 -411 -49 -105 -86 -159 -170 -248 -70 -75 -233 -217 -248
-217 -5 0 -20 -12 -34 -26 -52 -56 -259 -184 -468 -289 -649 -325 -1519 -541
-2556 -634 -412 -37 -612 -45 -1110 -45 -621 1 -1076 27 -1740 100 -491 54
-1249 166 -1680 250 -95 18 -222 44 -250 50 -70 16 -175 36 -204 40 -45 6
-384 77 -542 114 -148 34 -329 91 -414 129 -33 15 -80 36 -105 47 -75 32 -191
113 -268 188 -176 170 -275 396 -259 592 9 95 37 168 98 248 88 116 196 185
326 208 60 10 79 9 147 -7 l79 -19 18 23 c42 52 15 113 -60 135 -128 38 -246
25 -381 -40 -140 -69 -283 -236 -341 -400 -28 -80 -31 -267 -5 -369 40 -160
168 -370 299 -492 220 -205 515 -327 1057 -438 1266 -259 2555 -441 3365 -476
1019 -43 1633 -26 2365 67 716 90 1290 222 1765 404 88 34 169 63 180 66 37 7
380 182 505 257 220 132 457 312 575 438 192 204 280 438 246 654 -54 350
-378 667 -918 900 l-113 49 59 110 c287 539 689 1392 1021 2166 196 457 347
823 705 1710 280 695 341 844 427 1054 96 236 98 246 46 279 -16 10 -167 30
-478 62 -766 78 -1888 190 -2650 265 -881 86 -2509 249 -2900 290 -537 57
-505 55 -617 35z"/>
<path d="M19360 21710 c-15 -16 -32 -30 -38 -30 -20 0 -32 -31 -72 -185 -70
-276 -153 -515 -388 -1110 -200 -507 -273 -724 -343 -1009 -24 -102 -29 -134
-20 -153 19 -42 82 -53 110 -19 6 8 29 83 50 167 69 273 153 515 384 1099 198
502 314 849 358 1068 8 38 18 62 26 62 7 0 253 -38 546 -85 2185 -348 3571
-503 4745 -532 144 -3 262 -7 262 -8 0 -1 -79 -165 -176 -366 -240 -497 -534
-1121 -791 -1684 -367 -803 -418 -912 -543 -1180 -67 -143 -228 -476 -357
-740 -129 -264 -241 -493 -248 -510 -16 -37 -6 -68 30 -91 55 -36 58 -32 310
479 238 483 430 888 665 1402 438 958 699 1521 920 1980 40 83 92 191 115 240
24 50 93 193 154 319 61 126 111 239 111 251 0 49 -81 85 -111 49 -12 -14 -36
-16 -214 -10 -110 4 -240 8 -290 11 -49 3 -144 7 -210 10 -1172 56 -2447 208
-4547 545 -208 33 -385 60 -394 60 -9 0 -29 -13 -44 -30z"/>
<path d="M26450 14629 c-62 -37 -233 -220 -299 -319 -246 -369 -357 -815 -474
-1915 l-13 -120 -7 65 c-4 36 -9 94 -12 130 -13 154 -103 739 -166 1075 -68
364 -182 889 -204 942 -23 56 -86 56 -129 0 -67 -89 -197 -371 -259 -562 -83
-253 -125 -448 -164 -750 -26 -201 -26 -836 0 -1080 38 -357 111 -811 201
-1253 33 -160 90 -469 134 -724 10 -60 16 -108 13 -108 -3 0 -24 28 -46 63
-97 154 -368 478 -589 705 -234 240 -521 488 -816 702 -117 85 -334 230 -345
230 -4 0 -45 23 -92 51 -293 172 -571 283 -871 344 -123 25 -146 27 -315 23
-109 -3 -194 -10 -211 -17 -66 -27 -75 -84 -21 -128 19 -15 62 -50 94 -78 32
-27 116 -97 186 -155 387 -321 626 -540 1061 -975 617 -617 1072 -1140 1560
-1793 255 -342 229 -312 268 -312 39 0 66 28 66 67 0 51 -539 752 -923 1199
-588 685 -1268 1357 -1965 1942 l-133 112 88 0 c357 0 794 -170 1293 -503 578
-386 1071 -852 1495 -1416 126 -167 264 -379 270 -414 2 -18 10 -78 15 -135
26 -248 103 -407 230 -476 44 -24 60 -28 106 -24 64 5 108 33 112 71 5 37
-150 340 -293 572 -37 61 -44 82 -54 160 -21 163 -81 513 -166 970 -163 869
-204 1158 -227 1603 -17 326 5 711 58 1002 44 245 127 524 214 721 23 52 44
102 47 112 10 34 20 16 42 -80 164 -714 313 -1688 380 -2493 15 -188 17 -254
8 -405 -13 -256 -13 -1247 1 -1525 25 -496 34 -600 55 -626 13 -17 29 -24 51
-24 63 0 65 9 77 296 16 364 6 1414 -16 1744 -11 168 -15 313 -11 425 16 488
126 1463 210 1870 74 357 169 611 304 814 58 89 205 251 227 251 22 0 102 -95
134 -158 74 -146 96 -310 88 -637 -10 -366 -56 -973 -107 -1435 -70 -619 -193
-1386 -236 -1471 -114 -226 -366 -848 -452 -1120 -106 -331 -93 -573 38 -731
25 -30 39 -38 64 -38 19 0 40 8 49 18 44 48 289 1032 413 1652 l46 235 135
255 c241 454 378 685 649 1095 195 296 499 705 523 705 5 0 17 -30 27 -67 15
-53 19 -102 19 -223 -1 -213 -36 -387 -177 -880 -262 -915 -593 -1773 -1015
-2631 l-155 -316 -307 -6 c-524 -12 -753 -34 -1411 -136 -134 -21 -160 -35
-160 -87 0 -13 -11 -34 -25 -48 -14 -14 -25 -34 -25 -44 0 -11 13 -109 29
-218 17 -110 33 -233 37 -274 3 -41 10 -82 14 -90 4 -8 18 -127 31 -264 l23
-250 -34 -25 c-148 -113 -173 -145 -154 -196 7 -18 55 -45 79 -45 9 0 38 21
66 47 27 25 51 44 53 42 7 -8 27 -518 32 -799 2 -157 6 -323 9 -370 2 -47 0
-499 -5 -1005 -12 -1076 -1 -1891 25 -2014 33 -149 107 -246 224 -293 l56 -23
925 0 c844 0 928 1 960 17 44 21 75 50 97 91 17 30 18 101 15 1232 -10 3444
-18 4670 -31 4693 -19 35 -48 41 -216 48 -85 4 -155 9 -155 11 0 2 41 85 91
185 173 345 445 955 554 1243 21 55 41 105 45 110 33 45 298 810 409 1180 200
670 258 946 248 1180 -6 143 -25 223 -77 327 -59 119 -112 138 -177 64 -59
-67 -259 -325 -373 -481 -234 -320 -568 -846 -735 -1155 -33 -63 -54 -93 -51
-75 87 498 182 1363 221 2013 27 462 18 753 -29 913 -42 140 -156 314 -248
377 -62 42 -78 45 -118 21z m-235 -4671 c-59 -250 -95 -393 -162 -646 -53
-199 -67 -207 -67 -37 1 154 40 293 197 705 78 204 76 200 80 200 2 0 -19
-100 -48 -222z m201 -1453 c-25 -47 -46 -95 -46 -107 0 -52 80 -90 111 -52 7
9 40 66 74 128 l60 111 60 -2 c33 -1 104 -5 157 -9 l97 -6 3 -339 c2 -186 1
-339 -2 -339 -3 0 -18 19 -34 41 -54 76 -149 131 -258 149 -127 20 -380 -28
-706 -135 -341 -111 -695 -285 -977 -479 -44 -30 -81 -54 -82 -52 -1 1 -9 76
-18 166 -23 238 -42 398 -75 632 -17 114 -30 211 -30 216 0 9 136 35 370 72
173 27 454 58 645 70 88 6 180 12 205 13 25 2 146 4 268 5 l224 2 -46 -85z
m275 -578 c143 -70 203 -266 139 -451 -47 -138 -92 -201 -459 -641 -231 -276
-297 -350 -314 -348 -12 0 -56 11 -97 23 -100 30 -277 33 -365 6 -96 -29 -171
-74 -234 -142 -73 -78 -105 -151 -105 -245 0 -188 189 -303 395 -239 114 35
190 98 352 292 113 134 102 132 194 46 300 -285 256 -820 -97 -1168 -106 -106
-273 -217 -337 -225 -153 -19 -309 -83 -389 -159 -50 -48 -53 -62 -22 -101 19
-25 26 -27 67 -22 59 7 177 47 314 105 l108 45 68 -12 c140 -25 258 -104 340
-227 141 -210 130 -453 -31 -669 -146 -197 -359 -349 -898 -640 -140 -76 -263
-145 -272 -153 -38 -33 -3 -112 49 -112 25 0 474 242 690 372 399 239 605 465
674 738 30 117 23 272 -16 378 -64 176 -181 310 -334 384 -49 24 -89 46 -88
49 1 4 36 34 79 68 368 295 519 766 375 1164 -39 106 -85 175 -185 275 -56 57
-89 98 -85 105 4 7 109 134 233 282 345 413 408 494 465 603 15 29 29 52 30
50 2 -2 6 -1024 10 -2273 6 -2026 5 -2272 -8 -2290 -15 -20 -27 -20 -914 -20
-895 0 -898 0 -944 21 -55 26 -95 75 -115 141 -27 91 -34 428 -35 1868 -1
1438 -6 1767 -33 2210 l-14 230 21 18 c40 33 301 203 382 249 339 192 704 330
1100 414 131 28 250 28 306 1z m-758 -1546 c20 -7 37 -15 37 -20 0 -4 -38 -52
-84 -107 -158 -188 -235 -244 -337 -244 -162 0 -212 135 -98 264 42 48 91 79
166 106 49 17 76 20 168 16 61 -2 127 -9 148 -15z"/>
<path d="M19324 13275 c-23 -23 -25 -30 -20 -93 6 -68 10 -133 46 -722 33
-536 79 -1294 90 -1465 6 -88 19 -308 30 -490 11 -181 24 -402 30 -490 11
-171 57 -929 90 -1465 11 -179 24 -397 30 -485 6 -88 19 -308 30 -490 40 -663
50 -823 60 -975 6 -85 19 -303 30 -485 75 -1238 73 -1211 94 -1234 12 -13 47
-24 114 -36 151 -26 430 -92 617 -146 1285 -365 2453 -1122 3303 -2141 95
-115 119 -138 141 -138 38 0 71 38 71 81 0 29 -16 53 -101 154 -976 1161
-2329 1978 -3801 2295 -102 22 -193 40 -201 40 -11 0 -17 16 -21 58 -6 62 -7
73 -36 567 -11 182 -24 402 -30 490 -6 88 -19 306 -30 485 -33 536 -79 1294
-90 1465 -6 88 -19 309 -30 490 -11 182 -24 402 -30 490 -6 88 -19 306 -30
485 -33 536 -79 1294 -90 1465 -6 88 -19 309 -30 490 -83 1366 -110 1766 -120
1786 -11 20 -48 39 -76 39 -8 0 -26 -11 -40 -25z"/>
<path d="M15482 6207 c-29 -30 -28 -62 3 -92 19 -20 34 -25 75 -25 41 0 56 5
75 25 30 30 31 54 4 89 -18 23 -28 26 -78 26 -47 0 -61 -4 -79 -23z"/>
<path d="M14935 6187 c-55 -46 -40 -148 26 -183 105 -54 204 92 121 179 -34
36 -107 39 -147 4z"/>
<path d="M15186 5789 c-48 -38 -22 -119 39 -119 30 0 29 3 9 -51 -15 -42 -21
-146 -17 -274 1 -33 2 -76 2 -95 0 -19 2 -66 3 -105 5 -115 -48 -195 -129
-195 -44 0 -74 22 -88 64 -16 46 -29 56 -71 56 -78 0 -87 -108 -16 -183 78
-82 216 -96 314 -31 29 18 90 95 114 142 0 1 27 -10 59 -24 50 -23 67 -26 135
-22 96 6 165 41 227 116 72 88 80 172 18 188 -48 12 -73 -3 -100 -61 -27 -56
-75 -95 -136 -110 -41 -10 -106 12 -142 49 -33 33 -33 33 -47 186 -11 124 -11
167 -1 220 16 83 15 81 7 107 -7 21 -4 22 65 25 64 3 74 6 92 29 15 22 17 33
10 55 -15 46 -44 54 -189 54 -118 0 -134 -2 -158 -21z"/>
<path d="M9847 1850 c-284 -72 -356 -441 -127 -653 73 -68 143 -103 248 -125
94 -19 195 -9 297 29 80 30 166 114 184 182 31 111 -3 246 -85 337 -29 32
-152 120 -168 120 -2 0 -19 14 -37 32 -74 69 -211 103 -312 78z m93 -154 c6
-8 35 -23 63 -32 142 -47 249 -120 288 -196 26 -51 28 -137 5 -173 -52 -79
-269 -108 -398 -53 -152 65 -218 283 -121 399 47 55 137 85 163 55z"/>
</g>
</svg>
